<svg width="24" height="24" viewBox="0 0 423.7 512" fill="none" xmlns="http://www.w3.org/2000/svg">
  <path d="M323.7 0H100C44.9 0 0 44.9 0 100v378c0 11.1 6 21.4 15.6 26.9s21.5 5.5 31.1 0l62.5-36.3c4.2-2.4 9.3-2.4 13.5 0l62.4 36.2c8.3 4.8 17.5 7.2 26.8 7.2s18.5-2.4 26.8-7.2l62.4-36.2c4.2-2.4 9.3-2.4 13.5 0l62.5 36.3c9.6 5.6 21.5 5.6 31.1 0 9.6-5.5 15.6-15.9 15.6-26.9V100c0-55.1-44.9-100-100-100zm60 462.5L334.6 434c-16.5-9.6-37.1-9.6-53.6 0l-62.4 36.2c-4.2 2.4-9.3 2.4-13.5 0L142.7 434c-8.3-4.8-17.5-7.2-26.8-7.2s-18.5 2.4-26.8 7.2L40 462.5V100c0-33.1 26.9-60 60-60h223.7c33.1 0 60 26.9 60 60v362.5z" fill="#637381"/>
  <path d="M262.8 145.3H161c-11 0-20 9-20 20s9 20 20 20h101.8c11 0 20-9 20-20s-9-20-20-20zM235.5 255.6h-47.3c-11 0-20 9-20 20s9 20 20 20h47.3c11 0 20-9 20-20s-9-20-20-20z" fill="#637381"/>
</svg>