<svg width="24" height="24" viewBox="0 0 512 440.853" fill="none" xmlns="http://www.w3.org/2000/svg">
  <path d="M466.5 13.763c-78.44-30.13-184.22-3.69-247.42 12.1-15.86 3.96-29.55 7.38-38.34 8.78-22.73 3.6-64.58 3.26-117.83-.94-16.17-1.28-32.28 4.3-44.19 15.3-11.9 11-18.72 26.6-18.72 42.8v268.84c0 29.29 18.28 55.99 45.5 66.45 26.02 9.99 55.04 13.76 84.52 13.76 59.4 0 120.67-15.31 162.9-25.86 15.85-3.96 29.54-7.39 38.34-8.78 22.73-3.6 64.57-3.26 117.82.94 16.18 1.28 32.28-4.3 44.19-15.311 11.9-10.99 18.73-26.59 18.73-42.8V80.213c0-29.29-18.29-55.99-45.5-66.45zm3.5 335.28c0 4.6-1.86 8.84-5.23 11.96-3.39 3.12-7.78 4.65-12.38 4.28-39.94-3.15-94.51-5.81-127.7-.55-10.62 1.68-24.45 5.14-41.95 9.51-58.39 14.59-156.12 39.02-222.18 13.64-11.1-4.27-18.56-15.21-18.56-27.24V91.803c0-4.59 1.86-8.83 5.23-11.95 3.38-3.13 7.77-4.65 12.38-4.28 39.93 3.15 94.5 5.81 127.7.55 10.62-1.68 24.44-5.14 41.95-9.51 58.39-14.59 156.12-39.021 222.17-13.64 11.11 4.26 18.57 15.21 18.57 27.24v268.83z" fill="#637381"/>
  <path d="M259.091 297.086c-42.466 0-77.015-34.539-77.015-76.993s34.549-76.993 77.015-76.993 77.016 34.539 77.016 76.993-34.549 76.993-77.016 76.993zm0-111.986c-19.308 0-35.015 15.698-35.015 34.993s15.707 34.993 35.015 34.993 35.016-15.698 35.016-34.993-15.708-34.993-35.016-34.993z" fill="#637381"/>
</svg>
