<svg width="24" height="24" viewBox="0 0 504.9 487.3" fill="none" xmlns="http://www.w3.org/2000/svg">
  <path d="M483 155.4c-19.1-24-47.6-37.7-78.2-37.7H375C373.8 86.8 361.2 58 339.2 36 315.6 12.4 284.3-.4 250.9 0c-32.6.4-63.1 13.6-86 37.1-21.2 21.9-33.5 50.2-35.1 80.5H100c-30.6 0-59.1 13.7-78.2 37.7-19 23.9-26 54.7-19.3 84.5l34.3 169.4c0 .2 0 .3.1.5 5 22 17.5 41.8 35.2 55.8s39.8 21.8 62.3 21.8h236.1c22.5 0 44.7-7.7 62.3-21.8 17.6-14 30.1-33.9 35.2-55.8 0-.2 0-.3.1-.5l34.3-169.4c6.8-29.8-.3-60.5-19.3-84.4zM251.4 40c22.5-.3 43.6 8.3 59.5 24.2 14.4 14.4 22.8 33.3 24.1 53.4H170c3.2-42.9 38.5-77.2 81.5-77.6zm211.9 191.1c0 .2 0 .3-.1.5L428.9 401c-6.4 27.3-30.4 46.3-58.4 46.3H134.4c-28.1 0-52-19-58.4-46.3L41.7 231.6c0-.2 0-.3-.1-.5-4.1-17.9 0-36.4 11.5-50.8 11.4-14.4 28.6-22.6 46.9-22.6h304.8c18.4 0 35.5 8.2 46.9 22.6 11.4 14.4 15.7 32.9 11.5 50.8z" fill="#637381"/>
  <path d="M308.6 282.5H196.3c-11 0-20 9-20 20s9 20 20 20h112.3c11 0 20-9 20-20s-9-20-20-20z" fill="#637381"/>
</svg>
